<svg width="10" height="14" viewBox="0 0 10 14" fill="none" xmlns="http://www.w3.org/2000/svg">
<path d="M5.30116 3L5.42019 4H8.43363L8.18363 6H4.64291L4.41034 4H4.41313L4.29409 3L4.29269 2.98784L4.01016 0.558313L3.94522 0H0V1H3.05478L3.28734 3H0.433625L1.69925 13.124C1.7298 13.3657 1.8474 13.588 2.03002 13.7492C2.21265 13.9105 2.44779 13.9996 2.69141 14H7.30859C7.55224 13.9997 7.7874 13.9105 7.97005 13.7493C8.15271 13.588 8.27032 13.3658 8.30087 13.124L9.56637 3H5.30116ZM1.56637 4H3.40363L3.63619 6H1.81637L1.56637 4ZM7.30903 13H2.69137L1.94137 7H3.75247L4.1885 10.75H5.19522L4.75916 7H8.05875L7.30903 13Z" fill="black"/>
</svg>
