<svg width="22" height="17" viewBox="0 0 22 17" fill="none" xmlns="http://www.w3.org/2000/svg">
<path d="M5.5 12C6.28333 12 7.046 12.0877 7.788 12.263C8.53 12.4383 9.26733 12.7007 10 13.05V3.2C9.31667 2.8 8.59167 2.5 7.825 2.3C7.05833 2.1 6.28333 2 5.5 2C4.9 2 4.304 2.05833 3.712 2.175C3.12 2.29167 2.54933 2.46667 2 2.7V12.6C2.58333 12.4 3.16267 12.25 3.738 12.15C4.31333 12.05 4.90067 12 5.5 12ZM12 13.05C12.7333 12.7 13.471 12.4377 14.213 12.263C14.955 12.0883 15.7173 12.0007 16.5 12C17.1 12 17.6877 12.05 18.263 12.15C18.8383 12.25 19.4173 12.4 20 12.6V2.7C19.45 2.46667 18.879 2.29167 18.287 2.175C17.695 2.05833 17.0993 2 16.5 2C15.7167 2 14.9417 2.1 14.175 2.3C13.4083 2.5 12.6833 2.8 12 3.2V13.05ZM11 16C10.2 15.3667 9.33333 14.875 8.4 14.525C7.46667 14.175 6.5 14 5.5 14C4.61667 14 3.69167 14.1667 2.725 14.5C1.75833 14.8333 0.85 15.35 0 16.05V1.55C0.733333 1.05 1.596 0.666667 2.588 0.4C3.58 0.133333 4.55067 0 5.5 0C6.46667 0 7.41267 0.125 8.338 0.375C9.26333 0.625 10.1507 1 11 1.5C11.85 1 12.7377 0.625 13.663 0.375C14.5883 0.125 15.534 0 16.5 0C17.45 0 18.421 0.133333 19.413 0.4C20.405 0.666667 21.2673 1.05 22 1.55V16.05C21.1667 15.35 20.2623 14.8333 19.287 14.5C18.3117 14.1667 17.3827 14 16.5 14C15.5 14 14.5333 14.175 13.6 14.525C12.6667 14.875 11.8 15.3667 11 16ZM13 5.9V4.2C13.55 3.96667 14.1127 3.79167 14.688 3.675C15.2633 3.55833 15.8673 3.5 16.5 3.5C16.9333 3.5 17.3583 3.53333 17.775 3.6C18.1917 3.66667 18.6 3.75 19 3.85V5.45C18.6 5.3 18.1957 5.18767 17.787 5.113C17.3783 5.03833 16.9493 5.00067 16.5 5C15.8667 5 15.2583 5.07933 14.675 5.238C14.0917 5.39667 13.5333 5.61733 13 5.9ZM13 11.4V9.7C13.55 9.46667 14.1127 9.29167 14.688 9.175C15.2633 9.05833 15.8673 9 16.5 9C16.9333 9 17.3583 9.03333 17.775 9.1C18.1917 9.16667 18.6 9.25 19 9.35V10.95C18.6 10.8 18.1957 10.6873 17.787 10.612C17.3783 10.5367 16.9493 10.4993 16.5 10.5C15.8667 10.5 15.2583 10.575 14.675 10.725C14.0917 10.875 13.5333 11.1 13 11.4ZM13 8.65V6.95C13.55 6.71667 14.1127 6.54167 14.688 6.425C15.2633 6.30833 15.8673 6.25 16.5 6.25C16.9333 6.25 17.3583 6.28333 17.775 6.35C18.1917 6.41667 18.6 6.5 19 6.6V8.2C18.6 8.05 18.1957 7.93733 17.787 7.862C17.3783 7.78667 16.9493 7.74933 16.5 7.75C15.8667 7.75 15.2583 7.82933 14.675 7.988C14.0917 8.14667 13.5333 8.36733 13 8.65Z" fill="#424242"/>
</svg>
